PathFileType	4	(X/Y/Z)	58_2_101_p1_0-233.trc
DataRate	CameraRate	NumFrames	NumMarkers	Units	OrigDataRate	OrigDataStartFrame	OrigNumFrames
41.0	41.0	6	27	m	41.0	175	234
Frame#	Time	RHip			RKnee			RAnkle			RBigToe			RSmallToe			RHeel			LHip			LKnee			LAnkle			LBigToe			LSmallToe			LHeel			Neck			Head			Nose			RShoulder			RElbow			RWrist			RThumb			RIndex			RPinky			LShoulder			LElbow			LWrist			LThumb			LIndex			LPinky			
		X1	Y1	Z1	X2	Y2	Z2	X3	Y3	Z3	X4	Y4	Z4	X5	Y5	Z5	X6	Y6	Z6	X7	Y7	Z7	X8	Y8	Z8	X9	Y9	Z9	X10	Y10	Z10	X11	Y11	Z11	X12	Y12	Z12	X13	Y13	Z13	X14	Y14	Z14	X15	Y15	Z15	X16	Y16	Z16	X17	Y17	Z17	X18	Y18	Z18	X19	Y19	Z19	X20	Y20	Z20	X21	Y21	Z21	X22	Y22	Z22	X23	Y23	Z23	X24	Y24	Z24	X25	Y25	Z25	X26	Y26	Z26	X27	Y27	Z27	
175	4.2682926829268295	0.3379253614662972	0.5012056166894101	0.9706751472170705	0.3280661040419331	0.6279684873593526	1.455933282252957	0.31900255898194796	0.7561803030556518	1.8891443522515443	0.28516723684031975	0.5304744242805202	1.95049739153574	0.36197682948007603	0.5685527196176684	1.9407465542537887	0.2952177558874722	0.8543109177955047	1.9535356303003644	0.13448576916258512	0.4989000529660323	0.9847230547237654	0.14224655524123556	0.6180834161258486	1.4591155849715256	0.13231479594076934	0.7531669293362527	1.8911348753554216	0.1315737083040119	0.5416076522494575	1.9403821738229057	0.07327629828811516	0.6097755851184773	1.9531502765400375	0.1451382187412899	0.8293054881539961	1.9384827854430242	0.21090720554777412	0.4450237394679178	0.4226137074342717	0.22953478676969513	0.31633844297724445	0.1903741963941731	0.22386511926972597	0.2813759766945006	0.3404928037147648	0.3587112731814295	0.39658171599991776	0.5065973556968031	0.41889348331900217	0.5072800139917578	0.7838478195937358	0.42159897066562785	0.41784585739104807	1.0363508224422382	0.37137973266536933	0.42617625239385	1.1560202503502162	0.3948127779873644	0.41459837416809675	1.1744239119222837	0.4176786837872765	0.46412084941864507	1.1829149735060849	0.07139587707088016	0.4362250182643477	0.5140632494928322	0.042500302425075465	0.49856986102292133	0.7864278364902735	0.04710888624268457	0.45121426237921686	1.042402778409352	0.07725703309904386	0.4410393478311201	1.141644970462547	0.05643626516504764	0.45837351276519345	1.1572605603001307	0.029339690437407424	0.47783234289321785	1.1526947118010142
176	4.2926829268292686	0.3380187549056272	0.5012246027383764	0.9706339841043345	0.32836756999180716	0.6281809290635798	1.4561938174337417	0.3200563011660429	0.7590789523944379	1.8945075404209664	0.2850952734898099	0.5323193662039067	1.9473264636469696	0.36232573580035565	0.5690317573044515	1.941079583111546	0.2908964197238672	0.8383072667209973	1.9474701349282546	0.14384643058955976	0.4848071582667504	0.9794868843468184	0.14186730093128777	0.6197023859513497	1.4553889637860051	0.13218085610225538	0.7535355502918649	1.891230956967728	0.13443136727978924	0.5551230277899932	1.9464075343615705	0.07323337722556124	0.6100271873368391	1.9531725181814836	0.14508734179580732	0.8301324774433834	1.939035303580116	0.214880746318464	0.4321082303703234	0.42314431637611244	0.22654482736336087	0.3058221046972718	0.19178325495216778	0.22375830417148876	0.2811023093191965	0.3403855515227085	0.36273477540781546	0.3969396047508603	0.5063949266772275	0.4189136710866438	0.5071716915442981	0.7838533561496553	0.42165891970679303	0.4181086488032324	1.0363729574108154	0.3713844938822328	0.4261710871292713	1.1562319327810766	0.39146092809617394	0.4275862565890152	1.17731311769195	0.4178971930201574	0.46473934831552455	1.1832036633823855	0.0714562986883801	0.43622108601103393	0.5140128535249567	0.04302135583913657	0.49698974160881515	0.7830563733601996	0.0470127161215808	0.45081087968158656	1.0421058854490373	0.07266894343093122	0.4536221011919664	1.1439980667954148	0.05260229009608152	0.45719873717169496	1.15705255058311	0.025207587008659594	0.47669607387088286	1.1528583205522
177	4.317073170731708	0.3380627726603606	0.5013662863004945	0.9706842706058578	0.32810412596715843	0.6276202963843849	1.4557192833455719	0.31905950566497665	0.7564520805192615	1.888887130898735	0.28509638121379344	0.5323854945067829	1.947353556208306	0.3623986430425273	0.569345045206563	1.9411916185454472	0.2953193576157324	0.8546513418724845	1.9534147980235737	0.1433928612322797	0.48606886144926176	0.9827365836893764	0.14189902302241397	0.6197295565760292	1.4552799739918825	0.1321678300932202	0.7541711847009196	1.8916190711609553	0.1344865049433072	0.5550283754898878	1.9463204772996259	0.07321899425544201	0.6100844853616276	1.9531462233933816	0.14508077234294567	0.8299402317322937	1.9388338195457993	0.21488851580237833	0.43211354596101254	0.4230174584088712	0.2228562984826284	0.31773831055369484	0.19002136088376492	0.22384737839291194	0.2809385623223368	0.34038761170605575	0.3627596053984694	0.3970011223178857	0.506365198355325	0.4189430363141365	0.5070756066700189	0.783848337851118	0.4185755381661958	0.43169208062372894	1.0386429231122407	0.3714004688994008	0.4264551158141204	1.1557581982335265	0.3914977597918369	0.42747525756196303	1.1770180929413046	0.4178486045111297	0.4650653139017252	1.1831576479467594	0.0715325929735236	0.4365425667664834	0.5139607585083051	0.04271628322480052	0.49829141319917086	0.7864704438476146	0.04682947501782133	0.4507312357627482	1.041900385318388	0.07232898499886485	0.4532688167761344	1.143597001693135	0.05229429422796981	0.4569149811608849	1.1566545979110872	0.029027013243509186	0.47820473771929445	1.1525800507892006
178	4.341463414634147	0.33735744450569227	0.5036717988558358	0.9704662246044825	0.32841431146086375	0.6277028226623845	1.4559848723855497	0.325148308353731	0.7606333977735342	1.8951855562918163	0.28484788289350105	0.5316757584609714	1.947135267382284	0.36238989523002996	0.5684463530934981	1.9411981531040854	0.29978055042985197	0.8560779428329135	1.9538001293983058	0.1345151172106388	0.4988802567061359	0.9846115826263571	0.13733460420201948	0.6346645298760565	1.4597850570517394	0.13174801331789002	0.7558978943743961	1.8876432185089986	0.13444410845744895	0.5551901476463893	1.9463185352968166	0.0731499223328373	0.6102056185606604	1.9530102938725926	0.1479132471140658	0.8475460001780678	1.9404236732290292	0.21088307655236446	0.44493476794134695	0.4223923484313803	0.22283023349864023	0.3181639508345318	0.190049337078547	0.22370434550122953	0.2808635963565341	0.3402616244692441	0.3628190689239817	0.39700381200265383	0.5064467808010416	0.4189455677315565	0.5071696003215607	0.7838491917547532	0.4217228625118156	0.4179692835699056	1.0363020270465544	0.367424758991515	0.4143602593277253	1.1536309601450676	0.39140054152486403	0.4277327714527247	1.177291817958791	0.41799372899082127	0.46538458464211196	1.1833683496617342	0.07150080674045595	0.4364436538721774	0.5139804854306819	0.042610446030971194	0.4981041645872051	0.7864850596811921	0.03856915860025817	0.46127023615379753	1.0402696899109127	0.07198619623049518	0.4542423996377973	1.1438431394431694	0.05207219480340283	0.45749975770702295	1.1567937125249241	0.025105853380885734	0.4765902602789476	1.1528234320075106
179	4.365853658536586	0.33739455637286303	0.5037871809073196	0.9704713524796211	0.3283028644502051	0.6283057947790145	1.4562692527944179	0.32405803548196216	0.7577230640630788	1.8894334242701285	0.2851389972067044	0.532425189034964	1.947473461680088	0.36167832193873845	0.5699706070972166	1.945642801185849	0.2997700461911404	0.8560165185080427	1.9539979752860768	0.13882360061538826	0.4997853659060521	0.9846169660082771	0.13771499673295387	0.6337110185250344	1.4634450270786263	0.13155056258272418	0.7556380726937515	1.887424367321677	0.13445544749162872	0.5547837121388178	1.9462498982904293	0.07318701277752034	0.6097745786078713	1.9528478940100817	0.1444143871662696	0.8314135337898221	1.9341112572523576	0.2109396737939896	0.444979704637098	0.4222190471768263	0.2187171346697994	0.31658052713621776	0.19071591928317574	0.21904852669766775	0.27898804385421744	0.3337953908597729	0.36289572382673796	0.39718994506736954	0.506461218405128	0.41899605369259635	0.5073249895585604	0.7839089209659423	0.4217134942970394	0.4181633525846126	1.0362840799689148	0.37137156391538656	0.4266861420457149	1.1556938039171976	0.39143785899969874	0.42802165556198274	1.1772925177341216	0.4174039161061377	0.4673605122253116	1.1793837020196138	0.07172370828567994	0.4355844965975137	0.5105053542415923	0.0374927651467449	0.5110307976783005	0.7872222862812975	0.03376982305569238	0.46171194644394364	1.0363461706417754	0.06768005524555121	0.4655401636722045	1.1424487702876058	0.04341538590167969	0.4691851083586378	1.155696643784791	0.01982712987478142	0.49047910576521386	1.1551772694244344
180	4.390243902439025	0.3373615125554782	0.5038731306339146	0.9705375795177765	0.32816429641821127	0.6284373584580908	1.4562320885797702	0.3239681368305861	0.7580182808881236	1.8894468701000433	0.285042449570513	0.5311499353962865	1.950551740490455	0.36166587800385364	0.5704255530557523	1.940885371090571	0.2984674916602016	0.8538308124621593	1.9472747627166815	0.13872127434638595	0.5000022517441467	0.9847594046217092	0.13763598243667702	0.6337555452538063	1.4636207781292787	0.1318208804517864	0.7538023503235076	1.891311254094493	0.13460397919054104	0.5546983784814292	1.9460874776295727	0.07408042714473954	0.6125075550882367	1.9582211330477142	0.14508243721666345	0.830544382398557	1.9397038550779961	0.2108002523535843	0.4447955697098354	0.42197419527777996	0.21864830607133903	0.31651781322175737	0.19062530843984926	0.21882006118363503	0.27956965312681775	0.3304887046206524	0.36294575593821016	0.39726720209631	0.5064919471924904	0.4230842434904161	0.5090723297315041	0.7875323609358252	0.4221324663029424	0.4168092781880677	1.0328407593063849	0.37141942848713566	0.426690961400857	1.155614230843141	0.39142330248994406	0.4281042800119153	1.17722212032285	0.4185104677650965	0.4652355261522657	1.1803105155303257	0.07417165958945175	0.44887959206434663	0.5134297793125572	0.03797505975322038	0.513651601960201	0.7912227561883791	0.033775509320990375	0.4619590369754327	1.036444108174672	0.06740855423046917	0.4656845578799019	1.142563620872045	0.04394856062507903	0.47154778828154864	1.160479262380403	0.012269776375809222	0.4909047402035085	1.1555661339803143
